<?xml version="1.0" encoding="utf-8"?><svg viewBox="0 0 41 28" xmlns="http://www.w3.org/2000/svg" xmlns:xlink="http://www.w3.org/1999/xlink"><style>:root>svg{display:none}:root>svg:target{display:block}</style><svg fill="none" viewBox="0 0 26 26" id="fb" xmlns="http://www.w3.org/2000/svg"><rect x=".088" width="25.735" height="25.735" rx="12.867" fill="#612B1C"/><path d="M17.497 7.306H16c-1.184 0-1.394.58-1.394 1.442v1.84h2.787l-.368 2.991h-2.419v7.614h-2.98V13.58H9.171v-2.991h2.454v-2.14c0-2.529 1.49-3.907 3.672-3.907 1.043 0 1.937.082 2.2.118v2.647z" fill="#FFF06A"/></svg><svg fill="none" viewBox="0 0 26 26" id="inst" xmlns="http://www.w3.org/2000/svg"><rect x=".265" width="25.735" height="25.735" rx="12.867" fill="#612B1C"/><path fill-rule="evenodd" clip-rule="evenodd" d="M6.32 10.358a4.302 4.302 0 014.303-4.303h5.02a4.302 4.302 0 014.302 4.303v5.02a4.302 4.302 0 01-4.303 4.302h-5.02a4.302 4.302 0 01-4.302-4.303v-5.02zM18.242 8.61a.851.851 0 11-1.703 0 .851.851 0 011.703 0zm-2.839 4.257a2.27 2.27 0 11-4.541 0 2.27 2.27 0 014.541 0zm1.136 0a3.406 3.406 0 11-6.812 0 3.406 3.406 0 016.812 0z" fill="#FFF06A"/></svg><svg fill="none" viewBox="0 0 33 9" id="left-arrow" xmlns="http://www.w3.org/2000/svg"><path d="M.646 4.74a.5.5 0 010-.707L3.828.851a.5.5 0 11.708.707L1.707 4.387l2.829 2.828a.5.5 0 11-.708.707L.646 4.74zM33 4.887H1v-1h32v1z" fill="#612B1C"/></svg><svg fill="none" viewBox="0 0 33 9" id="right-arrow" xmlns="http://www.w3.org/2000/svg"><path d="M32.854 4.74a.5.5 0 000-.707L29.672.851a.5.5 0 10-.707.707l2.828 2.829-2.828 2.828a.5.5 0 00.707.707l3.182-3.182zM.5 4.887h32v-1H.5v1z" fill="#612B1C"/></svg><svg fill="none" viewBox="0 0 26 26" id="tg" xmlns="http://www.w3.org/2000/svg"><path fill-rule="evenodd" clip-rule="evenodd" d="M12.85 25.7c7.097 0 12.85-5.753 12.85-12.85C25.7 5.753 19.947 0 12.85 0 5.753 0 0 5.753 0 12.85 0 19.947 5.753 25.7 12.85 25.7zm3.923-7.203l2.04-9.63-.006-.005c.209-.842-.317-1.22-.865-.977l-12.006 4.63c-.82.334-.814.791-.147.99l3.078.96L9.94 17.96c.029.082.048.153.065.214.063.228.089.323.41.323.304 0 .446-.142.611-.308l.01-.009 1.502-1.451 3.106 2.299c.576.316.988.152 1.13-.531z" fill="#612B1C"/></svg><svg fill="none" viewBox="0 0 27 26" id="tt" xmlns="http://www.w3.org/2000/svg"><g clip-path="url(#fclip0_1_649)"><circle cx="13.55" cy="12.85" r="12.85" fill="#612B1C"/><path fill-rule="evenodd" clip-rule="evenodd" d="M16.45 10.197a5.768 5.768 0 003.365 1.076V8.86c-.237 0-.474-.025-.707-.074v1.899a5.769 5.769 0 01-3.364-1.076v4.924a4.461 4.461 0 01-6.947 3.706 4.461 4.461 0 007.653-3.118v-4.924zm.872-2.435a3.362 3.362 0 01-.871-1.969v-.31h-.67c.169.96.743 1.781 1.541 2.279zm-6.966 8.587a2.04 2.04 0 012.244-3.18v-2.467a4.509 4.509 0 00-.706-.04v1.92a2.044 2.044 0 00-2.66 1.944 2.04 2.04 0 001.122 1.823z" fill="#612B1C"/><path fill-rule="evenodd" clip-rule="evenodd" d="M15.744 9.609a5.769 5.769 0 003.365 1.076v-1.9a3.377 3.377 0 01-1.787-1.023 3.379 3.379 0 01-1.54-2.28h-1.76v9.639a2.041 2.041 0 01-3.666 1.228 2.04 2.04 0 011.538-3.767v-1.92a4.461 4.461 0 00-3.097 7.577 4.461 4.461 0 006.947-3.706V9.61z" fill="#FFF06A"/><path fill-rule="evenodd" clip-rule="evenodd" d="M19.109 8.786v-.514a3.365 3.365 0 01-1.787-.51 3.375 3.375 0 001.787 1.024zM15.78 5.483a3.443 3.443 0 01-.037-.277v-.31h-2.428v9.637a2.04 2.04 0 01-2.96 1.816 2.041 2.041 0 003.666-1.228V5.483h1.76zm-3.887 5.179v-.547a4.461 4.461 0 00-3.097 8.124 4.461 4.461 0 013.097-7.578z" fill="#612B1C"/></g><defs><clipPath id="fclip0_1_649"><path fill="#fff" transform="translate(.7)" d="M0 0h25.7v25.7H0z"/></clipPath></defs></svg><svg fill="none" viewBox="0 0 25 24" id="upload" xmlns="http://www.w3.org/2000/svg"><path d="M21.5 15v4a2 2 0 01-2 2h-14a2 2 0 01-2-2v-4M7.5 10l5 5 5-5M12.5 15V3" stroke="#fff" stroke-linecap="round" stroke-linejoin="round"/></svg><svg fill="none" viewBox="0 0 27 26" id="vk" xmlns="http://www.w3.org/2000/svg"><rect x=".663" width="25.735" height="25.735" rx="12.867" fill="#612B1C"/><path d="M13.288 17.952h1.018s.306-.034.463-.207c.149-.162.149-.461.149-.461s-.022-1.41.615-1.617c.628-.205 1.425 1.36 2.275 1.963.648.46 1.136.361 1.136.361l2.275-.032s1.191-.077.628-1.043c-.043-.077-.32-.713-1.68-2.019-1.424-1.361-1.233-1.142.48-3.502 1.04-1.437 1.466-2.315 1.328-2.688-.118-.352-.893-.264-.893-.264l-2.551.022s-.191-.022-.33.066c-.138.087-.222.286-.222.286s-.405 1.118-.946 2.063c-1.15 1.996-1.607 2.106-1.788 1.974-.427-.286-.317-1.156-.317-1.779 0-1.932.286-2.743-.554-2.951-.276-.067-.482-.11-1.193-.122-.914-.01-1.685.008-2.122.228-.287.148-.51.477-.382.493.17.022.552.107.754.393.266.37.254 1.197.254 1.197s.15 2.28-.35 2.562c-.35.192-.818-.205-1.838-2.016a16.644 16.644 0 01-.914-1.953s-.074-.187-.212-.297a1.099 1.099 0 00-.394-.164l-2.434.022s-.36.011-.488.175c-.117.143-.011.45-.011.45s1.903 4.599 4.06 6.915c1.977 2.122 4.22 1.986 4.22 1.986l-.036-.04z" fill="#FFF06A"/></svg><svg fill="none" viewBox="0 0 27 26" id="yadz" xmlns="http://www.w3.org/2000/svg"><path fill-rule="evenodd" clip-rule="evenodd" d="M13.25 25.7c7.097 0 12.85-5.753 12.85-12.85C26.1 5.753 20.347 0 13.25 0 6.153 0 .4 5.753.4 12.85c0 7.097 5.753 12.85 12.85 12.85zM4.793 11.082c.01-4.953.886-6.222 4.546-6.587a36.901 36.901 0 012.44-.14l1.281-.024v1.146c0 3.063-.646 5.083-1.942 6.072-.825.63-2.29.982-4.715 1.136l-1.613.102.003-1.705zm11.76 1.112c-2.19-.727-3.162-2.832-3.162-6.848V4.283l2.205.115c3.45.179 4.582.589 5.308 1.924.507.93.75 2.463.754 4.75.003 1.507-.029 1.695-.286 1.693-1.235-.012-4.19-.362-4.82-.57zM5.546 19.378c-.506-.93-.75-2.463-.754-4.75-.003-1.507.03-1.695.287-1.693 1.234.012 4.19.362 4.82.57 2.175.723 3.16 2.825 3.16 6.742v1.17l-2.205-.115c-3.45-.179-4.581-.589-5.308-1.924zm8.608-3.754c.776-1.616 2.092-2.3 4.86-2.527a64.463 64.463 0 012.05-.14l.645-.024-.097 2.44c-.105 2.624-.244 3.332-.821 4.18-.83 1.218-1.899 1.578-5.196 1.75l-2.205.114v-1.17c0-1.816.307-3.673.764-4.623z" fill="#612B1C"/></svg><svg fill="none" viewBox="0 0 26 26" id="youtube" xmlns="http://www.w3.org/2000/svg"><rect width="25.735" height="25.735" rx="12.867" fill="#612B1C"/><path d="M21.391 8.64c-.1-.352-.29-.673-.552-.93a2.165 2.165 0 00-.945-.544c-1.342-.354-6.74-.354-6.74-.354s-5.385-.007-6.74.354a2.165 2.165 0 00-.946.543 2.114 2.114 0 00-.552.93 21.698 21.698 0 00-.374 4.096 21.7 21.7 0 00.374 4.081c.1.352.29.672.552.93.263.258.588.445.946.543 1.34.355 6.74.355 6.74.355s5.384 0 6.74-.355c.357-.098.683-.285.945-.543.262-.258.453-.578.552-.93a21.7 21.7 0 00.359-4.08c.01-1.374-.11-2.745-.359-4.097zm-9.96 6.63v-5.076l4.493 2.541-4.493 2.534z" fill="#FFF06A"/></svg><svg fill="none" viewBox="0 0 41 28" id="youtube2" xmlns="http://www.w3.org/2000/svg"><path d="M40.144 4.324a4.997 4.997 0 00-1.316-2.201A5.166 5.166 0 0036.576.837C33.38 0 20.518 0 20.518 0S7.69-.017 4.461.837a5.167 5.167 0 00-2.253 1.286 4.997 4.997 0 00-1.316 2.2A51.023 51.023 0 000 14.018c-.01 3.24.289 6.473.892 9.658.238.832.691 1.59 1.316 2.2.626.612 1.401 1.055 2.253 1.287C7.653 28 20.518 28 20.518 28s12.828 0 16.058-.838a5.165 5.165 0 002.252-1.286 4.997 4.997 0 001.316-2.201c.59-3.186.877-6.42.855-9.658a51.018 51.018 0 00-.855-9.693zm-23.73 15.69V8.002l10.704 6.015-10.705 5.997z" fill="#fff"/></svg></svg>